<svg width="1440" height="1024" viewBox="0 0 1440 1024" fill="none" xmlns="http://www.w3.org/2000/svg">
<mask id="mask0" mask-type="alpha" maskUnits="userSpaceOnUse" x="0" y="0" width="1440" height="1024">
<rect width="1440" height="1024" fill="#C4C4C4"/>
</mask>
<g mask="url(#mask0)">
<rect width="1440" height="1024" fill="#F2F9FF"/>
<circle r="10" transform="matrix(-1 0 0 1 1018 257)" fill="#272343"/>
<circle r="4" transform="matrix(-1 0 0 1 1041 237)" fill="#BAE8E8"/>
<path d="M848 298C827.441 294.008 782.277 280.891 766.093 260.359C758.205 254.369 748.516 229.024 772.861 175.565C775.307 167.959 778.334 150.377 770.864 140.901C763.395 131.425 737.749 124.996 725.86 122.966C714.283 119.325 688.796 109.081 679.46 97.2362C670.123 85.3911 676.431 54.5692 680.752 40.6389C683.251 32.7641 683.047 15.8372 662.239 11.128C641.431 6.41871 640.912 -5.55348 643.253 -10.9509" stroke="#BAE8E8" stroke-width="15"/>
<path d="M-20 382C-20 351.247 -12.2646 282.471 18.677 253.395C26.6108 240.348 68.3621 219.286 171.898 239.416C186.277 240.814 218.607 240.255 232.888 226.835C247.169 213.415 249.747 174.647 249.252 156.941C251.731 139.234 261.152 99.6277 279.003 82.8531C296.854 66.0786 353.878 66.5445 380.158 68.8743C395.034 70.2722 425.083 65.2398 426.273 33.9272C427.463 2.61462 448.587 -1.48583 459 0.37801" stroke="#FFD803" stroke-width="49"/>
<path d="M1512 288.627C1482.17 296.104 1413.57 305.322 1377.85 282.378C1363.26 277.855 1332.68 242.477 1327.03 137.154C1324.89 122.866 1316.49 91.6416 1300 81.052C1283.51 70.4624 1245.28 77.3869 1228.23 82.1728C1210.45 84.0728 1169.74 84.5636 1149.13 71.3267C1128.52 58.0898 1115.11 2.66368 1110.98 -23.3947C1108.72 -38.164 1096.53 -66.0879 1065.87 -59.6293C1035.2 -53.1708 1026.09 -72.6636 1025.37 -83.2174" stroke="#FFD803" stroke-width="49"/>
<path d="M1180.51 315.938C1195.44 313.038 1228.16 303.016 1239.54 286.133C1245.17 281.277 1251.7 260.209 1232.73 214.79C1230.78 208.35 1228.18 193.522 1233.43 185.73C1238.68 177.938 1257.28 173.103 1265.92 171.66C1274.3 168.857 1292.7 160.816 1299.27 151.076C1305.83 141.335 1300.54 115.318 1297.08 103.528C1295.08 96.8609 1294.86 82.6534 1309.96 79.1564C1325.06 75.6593 1325.18 65.6188 1323.35 61.0356" stroke="#BAE8E8" stroke-width="15"/>
<circle cx="94.5" cy="74.5" r="21.5" fill="#BAE8E8"/>
<circle cx="1358.5" cy="40.5" r="14.5" fill="#BAE8E8"/>
<circle cx="1367.5" cy="69.5" r="8.5" fill="#FFD803"/>
<circle r="9" transform="matrix(-1 0 0 1 446 234)" fill="#BAE8E8"/>
<circle r="9" transform="matrix(-1 0 0 1 831 60)" fill="#272343"/>
<circle r="3" transform="matrix(-1 0 0 1 470 219)" fill="#272343"/>
<circle cx="139.5" cy="60.5" r="10.5" fill="#FFD803"/>
<circle cx="706.5" cy="79.5" r="10.5" fill="#FFD803"/>
<circle cx="1002.5" cy="241.5" r="22.5" fill="#FFD803"/>
<circle cx="95.5" cy="316.5" r="22.5" fill="#FFD803"/>
<circle cx="123" cy="288" r="8" fill="#272343"/>
<circle cx="131.5" cy="82.5" r="4.5" fill="#FFD803"/>
</g>
</svg>
